<?xml version="1.0" standalone="no"?>
<!DOCTYPE svg PUBLIC "-//W3C//DTD SVG 20010904//EN"
 "http://www.w3.org/TR/2001/REC-SVG-20010904/DTD/svg10.dtd">
<svg version="1.0" xmlns="http://www.w3.org/2000/svg"
 width="101.000000pt" height="101.000000pt" viewBox="0 0 101.000000 101.000000"
 preserveAspectRatio="xMidYMid meet">
<metadata>
Created by potrace 1.11, written by Peter Selinger 2001-2013
</metadata>
<g transform="translate(0.000000,101.000000) scale(0.100000,-0.100000)"
fill="#000000" stroke="none">
<path d="M321 991 c-29 -11 -75 -34 -102 -51 -110 -72 -220 -230 -218 -316 l1
-39 13 48 c23 85 67 159 130 222 193 194 497 194 690 0 194 -193 194 -497 0
-690 -267 -268 -719 -145 -820 222 l-13 48 -1 -39 c-3 -103 137 -281 270 -344
198 -94 418 -55 575 102 157 157 196 377 102 575 -43 91 -149 196 -243 242
-67 32 -75 34 -200 36 -109 3 -138 0 -184 -16z"/>
<path d="M181 518 c-45 -117 -81 -216 -81 -220 0 -12 80 -10 80 2 0 5 9 34 21
65 l20 55 83 0 82 0 24 -65 24 -65 43 0 42 0 -89 218 -88 217 -40 3 -39 3 -82
-213z m153 38 c14 -37 26 -70 26 -72 0 -2 -27 -4 -59 -4 l-59 0 18 48 c10 26
23 60 29 76 7 16 13 27 15 25 3 -2 16 -35 30 -73z m156 -249 c0 -5 -10 -7 -21
-5 -16 2 -27 18 -41 58 -11 30 -24 59 -29 64 -5 6 -9 37 -9 70 l1 61 49 -120
c27 -66 50 -124 50 -128z"/>
<path d="M550 510 l0 -220 165 0 165 0 0 30 0 30 -130 0 -130 0 0 65 0 64 118
3 117 3 3 33 3 32 -120 0 -121 0 0 60 0 60 125 0 125 0 0 30 0 30 -160 0 -160
0 0 -220z m100 190 c0 -15 -7 -20 -25 -20 -26 0 -26 -1 -23 -72 3 -67 5 -73
26 -76 31 -5 29 -32 -3 -32 -25 0 -25 -1 -25 -80 0 -79 0 -80 25 -80 18 0 25
-5 25 -20 0 -17 -7 -20 -45 -20 l-45 0 0 210 0 210 45 0 c38 0 45 -3 45 -20z"/>
</g>
</svg>
